<svg width="129" height="24" viewBox="0 0 129 24" fill="none" xmlns="http://www.w3.org/2000/svg">
<g clip-path="url(#clip0_7_227)">
<path fill-rule="evenodd" clip-rule="evenodd" d="M1.33333 18.146C1.33333 18.146 4.69873 16.0248 8 17.7231C11.6888 19.6208 14.6667 18.0693 14.6667 18.0693V6.33711C14.6667 6.33711 11.6893 7.8859 8.00103 5.98971C4.69903 4.29209 1.33333 6.42365 1.33333 6.42365V18.146V18.146Z" fill="white"/>
</g>
<path d="M33.296 19.5V6.09H37.67C39.086 6.09 40.316 6.378 41.36 6.954C42.416 7.518 43.232 8.304 43.808 9.312C44.384 10.308 44.672 11.466 44.672 12.786C44.672 14.094 44.384 15.258 43.808 16.278C43.232 17.286 42.416 18.078 41.36 18.654C40.316 19.218 39.086 19.5 37.67 19.5H33.296ZM35.744 17.34H37.724C38.636 17.34 39.422 17.154 40.082 16.782C40.754 16.398 41.276 15.87 41.648 15.198C42.02 14.514 42.206 13.71 42.206 12.786C42.206 11.85 42.02 11.046 41.648 10.374C41.276 9.702 40.754 9.18 40.082 8.808C39.422 8.436 38.636 8.25 37.724 8.25H35.744V17.34ZM51.0662 19.716C50.0582 19.716 49.1762 19.488 48.4202 19.032C47.6642 18.576 47.0762 17.958 46.6562 17.178C46.2362 16.398 46.0262 15.534 46.0262 14.586C46.0262 13.602 46.2362 12.732 46.6562 11.976C47.0882 11.208 47.6702 10.602 48.4022 10.158C49.1462 9.714 49.9742 9.492 50.8862 9.492C51.6542 9.492 52.3262 9.618 52.9022 9.87C53.4902 10.122 53.9882 10.47 54.3962 10.914C54.8042 11.358 55.1162 11.868 55.3322 12.444C55.5482 13.008 55.6562 13.62 55.6562 14.28C55.6562 14.448 55.6442 14.622 55.6202 14.802C55.6082 14.982 55.5782 15.138 55.5302 15.27H47.9702V13.47H54.1982L53.0822 14.316C53.1902 13.764 53.1602 13.272 52.9922 12.84C52.8362 12.408 52.5722 12.066 52.2002 11.814C51.8402 11.562 51.4022 11.436 50.8862 11.436C50.3942 11.436 49.9562 11.562 49.5722 11.814C49.1882 12.054 48.8942 12.414 48.6902 12.894C48.4982 13.362 48.4262 13.932 48.4742 14.604C48.4262 15.204 48.5042 15.738 48.7082 16.206C48.9242 16.662 49.2362 17.016 49.6442 17.268C50.0642 17.52 50.5442 17.646 51.0842 17.646C51.6242 17.646 52.0802 17.532 52.4522 17.304C52.8362 17.076 53.1362 16.77 53.3522 16.386L55.2602 17.322C55.0682 17.79 54.7682 18.204 54.3602 18.564C53.9522 18.924 53.4662 19.206 52.9022 19.41C52.3502 19.614 51.7382 19.716 51.0662 19.716ZM60.2199 19.5L56.3679 9.708H58.9419L61.7319 17.412H60.7779L63.5859 9.708H66.1599L62.3079 19.5H60.2199ZM67.0672 19.5V17.25H67.8412C68.4172 17.25 68.8732 17.088 69.2092 16.764C69.5572 16.428 69.7312 15.984 69.7312 15.432V6.09H72.1972V15.342C72.1972 16.17 72.0172 16.896 71.6572 17.52C71.3092 18.144 70.8052 18.63 70.1452 18.978C69.4972 19.326 68.7292 19.5 67.8412 19.5H67.0672ZM79.3176 19.716C78.3576 19.716 77.4816 19.494 76.6896 19.05C75.9096 18.606 75.2856 18 74.8176 17.232C74.3616 16.464 74.1336 15.588 74.1336 14.604C74.1336 13.62 74.3616 12.744 74.8176 11.976C75.2856 11.208 75.9096 10.602 76.6896 10.158C77.4696 9.714 78.3456 9.492 79.3176 9.492C80.2776 9.492 81.1476 9.714 81.9276 10.158C82.7076 10.602 83.3256 11.208 83.7816 11.976C84.2496 12.732 84.4836 13.608 84.4836 14.604C84.4836 15.588 84.2496 16.464 83.7816 17.232C83.3136 18 82.6896 18.606 81.9096 19.05C81.1296 19.494 80.2656 19.716 79.3176 19.716ZM79.3176 17.556C79.8456 17.556 80.3076 17.43 80.7036 17.178C81.1116 16.926 81.4296 16.578 81.6576 16.134C81.8976 15.678 82.0176 15.168 82.0176 14.604C82.0176 14.028 81.8976 13.524 81.6576 13.092C81.4296 12.648 81.1116 12.3 80.7036 12.048C80.3076 11.784 79.8456 11.652 79.3176 11.652C78.7776 11.652 78.3036 11.784 77.8956 12.048C77.4876 12.3 77.1636 12.648 76.9236 13.092C76.6956 13.524 76.5816 14.028 76.5816 14.604C76.5816 15.168 76.6956 15.678 76.9236 16.134C77.1636 16.578 77.4876 16.926 77.8956 17.178C78.3036 17.43 78.7776 17.556 79.3176 17.556ZM89.7638 19.716C89.0078 19.716 88.3478 19.548 87.7838 19.212C87.2318 18.876 86.8058 18.408 86.5058 17.808C86.2178 17.208 86.0738 16.506 86.0738 15.702V9.708H88.4318V15.504C88.4318 15.912 88.5098 16.272 88.6658 16.584C88.8338 16.884 89.0678 17.124 89.3678 17.304C89.6798 17.472 90.0278 17.556 90.4118 17.556C90.7958 17.556 91.1378 17.472 91.4378 17.304C91.7378 17.124 91.9718 16.878 92.1398 16.566C92.3078 16.254 92.3918 15.882 92.3918 15.45V9.708H94.7498V19.5H92.5178V17.574L92.7158 17.916C92.4878 18.516 92.1098 18.966 91.5818 19.266C91.0658 19.566 90.4598 19.716 89.7638 19.716ZM96.9418 19.5V9.708H99.1558V11.886L98.9758 11.562C99.2038 10.83 99.5578 10.32 100.038 10.032C100.53 9.744 101.118 9.6 101.802 9.6H102.378V11.688H101.532C100.86 11.688 100.32 11.898 99.9118 12.318C99.5038 12.726 99.2998 13.302 99.2998 14.046V19.5H96.9418ZM103.674 19.5V9.708H105.888V11.634L105.708 11.292C105.936 10.704 106.308 10.26 106.824 9.96C107.352 9.648 107.964 9.492 108.66 9.492C109.38 9.492 110.016 9.648 110.568 9.96C111.132 10.272 111.57 10.71 111.882 11.274C112.194 11.826 112.35 12.468 112.35 13.2V19.5H109.992V13.758C109.992 13.326 109.908 12.954 109.74 12.642C109.572 12.33 109.338 12.09 109.038 11.922C108.75 11.742 108.408 11.652 108.012 11.652C107.628 11.652 107.286 11.742 106.986 11.922C106.686 12.09 106.452 12.33 106.284 12.642C106.116 12.954 106.032 13.326 106.032 13.758V19.5H103.674ZM117.314 19.716C116.63 19.716 116.036 19.602 115.532 19.374C115.028 19.146 114.638 18.822 114.362 18.402C114.086 17.97 113.948 17.472 113.948 16.908C113.948 16.368 114.068 15.888 114.308 15.468C114.548 15.036 114.92 14.676 115.424 14.388C115.928 14.1 116.564 13.896 117.332 13.776L120.536 13.254V15.054L117.782 15.522C117.314 15.606 116.966 15.756 116.738 15.972C116.51 16.188 116.396 16.47 116.396 16.818C116.396 17.154 116.522 17.424 116.774 17.628C117.038 17.82 117.362 17.916 117.746 17.916C118.238 17.916 118.67 17.814 119.042 17.61C119.426 17.394 119.72 17.1 119.924 16.728C120.14 16.356 120.248 15.948 120.248 15.504V12.984C120.248 12.564 120.08 12.216 119.744 11.94C119.42 11.652 118.988 11.508 118.448 11.508C117.944 11.508 117.494 11.646 117.098 11.922C116.714 12.186 116.432 12.54 116.252 12.984L114.326 12.048C114.518 11.532 114.818 11.088 115.226 10.716C115.646 10.332 116.138 10.032 116.702 9.816C117.266 9.6 117.878 9.492 118.538 9.492C119.342 9.492 120.05 9.642 120.662 9.942C121.274 10.23 121.748 10.638 122.084 11.166C122.432 11.682 122.606 12.288 122.606 12.984V19.5H120.374V17.826L120.878 17.79C120.626 18.21 120.326 18.564 119.978 18.852C119.63 19.128 119.234 19.344 118.79 19.5C118.346 19.644 117.854 19.716 117.314 19.716ZM124.786 19.5V5.874H127.144V19.5H124.786Z" fill="white"/>
<defs>
<clipPath id="clip0_7_227">
<rect width="16" height="16" fill="white" transform="translate(0 4)"/>
</clipPath>
</defs>
</svg>
